# xmcd CD database file
#
# Track frame offsets:
#	150
#	11092
#	24820
#	41091
#	52347
#	64998
#	79258
#	91594
#	107576
#	121465
#	133573
#	145836
#	158858
#	174458
#	185437
#	195461
#	216949
#	228793
#	238271
#	251488
#	275353
#	287864
#	307003
#
# Disc length: 4280 seconds
#
# Revision: 0
# Processed by: cddbd v1.5.1PL0 Copyright (c) Steve Scherf et al.
# Submitted via: CDex 1.51
#
DISCID=4910b617
DTITLE=Robert Jr. Lockwood - Steady Rollin' Man
DYEAR=1900
DGENRE=Blues
TTITLE0=Robert Jr. Lockwood - Take A Walk With Me
TTITLE1=Robert Jr. Lockwood - Steady Rollin' Man
TTITLE2=Robert Jr. Lockwood - Western Horizon
TTITLE3=Robert Jr. Lockwood - Steady Groove
TTITLE4=Robert Jr. Lockwood - Mean Red Spider
TTITLE5=Robert Jr. Lockwood - LockWood's Boogie
TTITLE6=Robert Jr. Lockwood - Rambling On My Mind
TTITLE7=Robert Jr. Lockwood - Blues And Trouble
TTITLE8=Robert Jr. Lockwood - Worst old Feeling
TTITLE9=Robert Jr. Lockwood - Kind-Hearted Woman
TTITLE10=Robert Jr. Lockwood - Can't Stand The Pain
TTITLE11=Robert Jr. Lockwood - Tanya
TTITLE12=Robert Jr. Lockwood - For You MY Love
TTITLE13=Robert Jr. Lockwood - My Bad Luck Soul
TTITLE14=Robert Jr. Lockwood - Party Time
TTITLE15=Robert Jr. Lockwood - I Want You To Know
TTITLE16=Robert Jr. Lockwood - Rockin' Free
TTITLE17=Robert Jr. Lockwood - Mister Blues
TTITLE18=Robert Jr. Lockwood - Soul Power
TTITLE19=Robert Jr. Lockwood - Blues On The Hour
TTITLE20=Robert Jr. Lockwood - Inflation Blues
TTITLE21=Robert Jr. Lockwood - Stake A Claim
TTITLE22=Robert Jr. Lockwood - Hey Hey
EXTD=
EXTT0=
EXTT1=
EXTT2=
EXTT3=
EXTT4=
EXTT5=
EXTT6=
EXTT7=
EXTT8=
EXTT9=
EXTT10=
EXTT11=
EXTT12=
EXTT13=
EXTT14=
EXTT15=
EXTT16=
EXTT17=
EXTT18=
EXTT19=
EXTT20=
EXTT21=
EXTT22=
PLAYORDER=
